<?xml version="1.0" encoding="utf-8"?>
<!-- Generator: Adobe Illustrator 21.1.0, SVG Export Plug-In . SVG Version: 6.00 Build 0)  -->
<svg version="1.1" xmlns="http://www.w3.org/2000/svg" xmlns:xlink="http://www.w3.org/1999/xlink" x="0px" y="0px"
	 viewBox="0 0 8 8" style="enable-background:new 0 0 8 8;" xml:space="preserve">
<style type="text/css">
	.st0{display:none;}
	.st1{display:inline;}
	.st2{fill:#EF0707;}
	.st3{fill:#DBDBDB;}
</style>
<g id="Layer_1" class="st0">
	<g class="st1">
		<path class="st2" d="M3.1,3.7H1.3c-0.2,0-0.5-0.2-0.5-0.5V1.4c0-0.2,0.2-0.5,0.5-0.5h1.8c0.2,0,0.5,0.2,0.5,0.5v1.8
			C3.6,3.5,3.4,3.7,3.1,3.7z M1.4,3.2h1.7V1.4H1.4V3.2z"/>
	</g>
	<g class="st1">
		<path class="st2" d="M6.7,3.7H4.9c-0.2,0-0.5-0.2-0.5-0.5V1.4c0-0.2,0.2-0.5,0.5-0.5h1.8c0.2,0,0.5,0.2,0.5,0.5v1.8
			C7.1,3.5,6.9,3.7,6.7,3.7z M4.9,3.2h1.7V1.4H4.9V3.2z"/>
	</g>
	<g class="st1">
		<path class="st2" d="M3.1,7.1H1.3c-0.2,0-0.5-0.2-0.5-0.4V4.8c0-0.2,0.2-0.5,0.5-0.5h1.8c0.2,0,0.5,0.2,0.5,0.5v1.8
			C3.6,6.9,3.4,7.1,3.1,7.1z M1.4,6.6h1.7V4.9H1.4V6.6z"/>
	</g>
	<g class="st1">
		<path class="st2" d="M6.7,7.1H4.9c-0.2,0-0.5-0.2-0.5-0.4V4.8c0-0.2,0.2-0.5,0.5-0.5h1.8c0.2,0,0.5,0.2,0.5,0.5v1.8
			C7.1,6.9,6.9,7.1,6.7,7.1z M4.9,6.6h1.7V4.9H4.9V6.6z"/>
	</g>
</g>
<g id="Layer_2">
	<path class="st3" d="M6.5,1.8H6.3V1.4c0-0.1-0.1-0.3-0.3-0.3S5.8,1.2,5.8,1.4v0.4H4.9V1.4c0-0.1-0.1-0.3-0.3-0.3S4.4,1.2,4.4,1.4
		v0.4H3.6V1.4c0-0.1-0.1-0.3-0.3-0.3S3.1,1.2,3.1,1.4v0.4H2.3V1.4c0-0.1-0.1-0.3-0.3-0.3S1.8,1.2,1.8,1.4v0.4H1.5
		c-0.4,0-0.8,0.3-0.8,0.8v3.6c0,0.4,0.3,0.8,0.8,0.8h5c0.4,0,0.8-0.3,0.8-0.8V2.5C7.3,2.1,6.9,1.8,6.5,1.8z M1.5,2.3h0.3v0.4
		c0,0.1,0.1,0.3,0.3,0.3s0.3-0.1,0.3-0.3V2.3h0.8v0.4c0,0.1,0.1,0.3,0.3,0.3s0.3-0.1,0.3-0.3V2.3h0.8v0.4c0,0.1,0.1,0.3,0.3,0.3
		s0.3-0.1,0.3-0.3V2.3h0.9v0.4c0,0.1,0.1,0.3,0.3,0.3s0.3-0.1,0.3-0.3V2.3h0.3c0.1,0,0.3,0.1,0.3,0.3v1H1.3v-1
		C1.3,2.4,1.4,2.3,1.5,2.3z M6.5,6.4h-5c-0.1,0-0.3-0.1-0.3-0.3V4h5.5v2.2C6.8,6.3,6.6,6.4,6.5,6.4z"/>
</g>
</svg>
